<svg width="28" height="28" viewBox="0 0 28 28" fill="none" xmlns="http://www.w3.org/2000/svg">
<path d="M5.55751 9.87997L8.38376 12.1112M5.53125 19.0675L8.36625 16.8362M18.2363 19.89L21.0625 22.1212M24.5625 14.5C24.5606 15.0872 24.5049 15.6729 24.3963 16.25C24.012 18.4215 22.9233 20.406 21.2983 21.8968C19.6733 23.3876 17.6025 24.3017 15.406 24.4978C13.2094 24.6939 11.0095 24.1611 9.14608 22.9817C7.28269 21.8023 5.85962 20.0421 5.09681 17.9729C4.33399 15.9038 4.27391 13.641 4.92585 11.5344C5.57778 9.42766 6.90543 7.59434 8.70361 6.31774C10.5018 5.04113 12.6704 4.39232 14.8742 4.47157C17.078 4.55083 19.1944 5.35374 20.8963 6.75622L18.4288 9.24997C17.2988 8.39293 15.9182 7.93169 14.5 7.93747C13.2771 7.9361 12.0781 8.27646 11.0383 8.92016C9.99855 9.56386 9.15931 10.4853 8.61528 11.5805C8.07125 12.6758 7.84407 13.9012 7.95937 15.1187C8.07467 16.3362 8.52786 17.4972 9.26783 18.4708C10.0078 19.4445 11.0051 20.192 12.1472 20.629C13.2894 21.0661 14.5309 21.1753 15.7318 20.9444C16.9327 20.7135 18.0452 20.1516 18.9438 19.3221C19.8424 18.4927 20.4914 17.4286 20.8175 16.25H14.9375V12.75H24.3963C24.5005 13.3276 24.5561 13.913 24.5625 14.5Z" stroke="currentColor" stroke-linecap="round" stroke-linejoin="round"/>
</svg>
