<svg width="93" height="40" viewBox="0 0 93 40" fill="none" xmlns="http://www.w3.org/2000/svg">
<path fill-rule="evenodd" clip-rule="evenodd" d="M22.1123 20.1878C22.1848 22.0736 22.1848 23.8868 22.1123 25.6275C22.0397 27.3682 21.804 29.0908 21.4051 30.7953C21.1875 31.7019 20.843 32.6085 20.3715 33.5151C19.9001 34.3855 19.942 34.3488 19.5695 34.6979C18.0384 35.1875 17.9379 36.3613 17.3054 36.6158C16.6729 36.8704 13.194 38.3021 11.9289 38.5751C10.9169 38.7935 10.0145 38.8468 9.05727 38.8461C6.40994 38.6285 4.72362 37.7582 3.99833 36.235C3.70821 35.6185 3.49062 35.0202 3.34556 34.4399C3.23677 33.8234 3.16424 33.1888 3.12797 32.536C3.01918 30.1788 1.80852 27.8216 2.02611 25.4644C2.2437 23.1072 2.11219 20.7499 2.03966 18.3927C2.0034 16.4706 2.47484 14.5486 3.45399 12.6266C3.88917 11.7562 4.39688 10.904 4.97711 10.0699C5.59362 9.23581 6.48211 8.47425 7.64258 7.78522C10.0723 6.40716 13.0642 5.82692 16.6181 6.04451C17.2709 6.08077 17.833 6.22583 18.3044 6.47968C18.7759 6.69727 19.1929 6.95113 19.5556 7.24125C20.2446 7.85775 20.7886 8.51052 21.1875 9.19955C21.5864 9.85232 21.804 10.5413 21.8403 11.2666C21.9128 12.826 22.0035 14.3673 22.1123 15.8904C22.2573 17.3773 22.2573 18.8097 22.1123 20.1878ZM20.9155 13.0618C20.8792 13.7145 20.8611 14.3673 20.8611 15.0201C20.9336 17.2685 21.0424 19.5169 21.1875 21.7653C21.3326 24.0137 21.2419 26.2622 20.9155 28.5106C20.7342 29.7436 20.4259 30.9403 19.9908 32.1008C19.5918 33.2613 19.6315 33.1986 19.1343 34.2084C18.6301 34.3989 17.4952 34.9697 16.9892 35.7287C16.4831 36.4878 14.2482 37.31 13.194 37.6263C12.3134 37.9714 11.2 38.5898 8.73089 38.3021C7.8968 38.1933 7.18964 37.9939 6.6094 37.7038C6.02916 37.4499 5.61212 37.0873 5.35826 36.6158C4.85055 35.6729 4.4879 34.7301 4.27031 33.7872C4.08899 32.808 4.01646 31.8107 4.05273 30.7953C4.04261 29.8043 2.75731 27.6324 2.75731 26.8734C2.75731 26.1143 2.93165 24.6749 3.01882 24.05C3.16387 21.8016 3.25454 19.5532 3.2908 17.3047C3.36333 15.7454 3.76225 14.2404 4.48754 12.7898C5.21284 11.3029 6.35518 9.88858 7.91457 8.54678C8.34975 8.18413 8.83932 7.85775 9.3833 7.56763C9.96353 7.24125 10.6526 7.00553 11.4504 6.86047C14.1703 6.35276 16.3643 6.47969 18.0325 7.24125C19.7369 7.96654 20.6798 9.25395 20.8611 11.1035C20.9336 11.7562 20.9518 12.409 20.9155 13.0618Z" fill="#F3BB41"/>
<path fill-rule="evenodd" clip-rule="evenodd" d="M20.8611 15.0201C20.8611 14.3673 20.8792 13.7145 20.9155 13.0618C20.9518 12.409 20.9336 11.7562 20.8611 11.1035C20.6798 9.25395 19.7369 7.96654 18.0325 7.24125C16.3643 6.47969 14.1703 6.35276 11.4504 6.86047C10.6526 7.00553 9.96353 7.24125 9.3833 7.56763C8.83932 7.85775 8.34975 8.18413 7.91457 8.54678C6.35518 9.88858 5.21284 11.3029 4.48754 12.7898C3.76225 14.2404 3.36333 15.7454 3.2908 17.3047C3.25454 19.5532 3.16387 21.8016 3.01882 24.05C2.93165 24.6749 2.75731 26.1143 2.75731 26.8734C2.75731 27.6324 4.04261 29.8043 4.05273 30.7953C4.01646 31.8107 4.08899 32.808 4.27031 33.7872C4.4879 34.7301 4.85055 35.6729 5.35826 36.6158C5.61212 37.0873 6.02916 37.4499 6.6094 37.7038C7.18964 37.9939 7.8968 38.1933 8.73089 38.3021C11.2 38.5898 12.3134 37.9714 13.194 37.6263C14.2482 37.31 16.4831 36.4878 16.9892 35.7287C17.4952 34.9697 18.6301 34.3989 19.1343 34.2084C19.6315 33.1986 19.5918 33.2613 19.9908 32.1008C20.4259 30.9403 20.7342 29.7436 20.9155 28.5106C21.2419 26.2622 21.3326 24.0137 21.1875 21.7653C21.0424 19.5169 20.9336 17.2685 20.8611 15.0201ZM17.1077 21.6565C16.9989 19.8433 17.1077 18.0663 17.4341 16.3256C17.4704 14.7662 16.7995 13.8052 15.4214 13.4425C14.6236 13.2612 13.6988 13.2793 12.6471 13.4969C11.6317 13.7145 10.6888 14.0772 9.81847 14.5849C8.658 15.2376 7.76951 15.9811 7.15301 16.8152C6.53651 17.613 6.08319 18.4471 5.79307 19.3174C5.21284 21.0944 5.10404 22.817 5.46669 24.4852C5.8656 26.1534 6.89915 27.7671 8.56734 29.3265C9.58275 30.2332 10.7976 30.7409 12.212 30.8497C13.6263 30.9585 15.0043 30.6683 16.3461 29.9793C17.0714 29.5804 17.5247 29.1452 17.7061 28.6738C17.9237 28.1661 17.9781 27.6402 17.8693 27.0962C17.5066 25.283 17.2528 23.4698 17.1077 21.6565Z" fill="#F3BB41"/>
<path fill-rule="evenodd" clip-rule="evenodd" d="M21.849 11.4518C21.846 11.3901 21.8431 11.3284 21.8403 11.2666C21.804 10.5413 21.5864 9.85232 21.1875 9.19955C20.7886 8.51052 20.2446 7.85775 19.5556 7.24125C19.1929 6.95113 18.7759 6.69727 18.3044 6.47968C17.833 6.22583 17.2709 6.08077 16.6181 6.04451C13.0642 5.82692 10.0723 6.40716 7.64258 7.78522C6.48211 8.47425 5.59362 9.23581 4.97711 10.0699C4.39688 10.904 3.88917 11.7562 3.45399 12.6266C2.47484 14.5486 2.0034 16.4706 2.03966 18.3927C2.05015 18.7334 2.06186 19.074 2.07357 19.4147C2.14291 21.4313 2.21225 23.4478 2.02611 25.4644C1.90328 26.795 2.23558 28.1257 2.56787 29.4563C2.82423 30.4829 3.08059 31.5095 3.12797 32.536C3.16424 33.1888 3.23677 33.8234 3.34556 34.4399C3.49062 35.0202 3.70821 35.6185 3.99833 36.235C4.72362 37.7582 6.40994 38.6285 9.05727 38.8461C10.0145 38.8468 10.9169 38.7935 11.9289 38.5751C13.091 38.3244 16.1209 37.0959 17.097 36.7002L17.0971 36.7001C17.1529 36.6775 17.2019 36.6576 17.2435 36.6408C17.2665 36.6315 17.2871 36.6232 17.3054 36.6158C17.547 36.5186 17.711 36.2873 17.9066 36.0113C18.1093 35.7254 18.346 35.3915 18.7382 35.1088C14.6156 35.0205 11.0047 32.8532 8.91222 29.6132C8.79481 29.5226 8.67985 29.427 8.56734 29.3265C6.89915 27.7671 5.8656 26.1534 5.46669 24.4852C5.10404 22.817 5.21284 21.0944 5.79307 19.3174C6.08319 18.4471 6.53651 17.613 7.15301 16.8152C7.76951 15.9811 8.658 15.2376 9.81847 14.5849C10.3047 14.3012 10.8136 14.0629 11.3452 13.8698C13.4226 12.1471 16.0904 11.1116 19 11.1116C19.9816 11.1116 20.9358 11.2294 21.849 11.4518Z" fill="#F3BB41"/>
<path fill-rule="evenodd" clip-rule="evenodd" d="M49.5318 20.1691C49.6044 22.0549 49.6044 23.8681 49.5318 25.6088C49.4593 27.3495 49.2236 29.0721 48.8247 30.7766C48.6071 31.6832 48.2626 32.5898 47.7911 33.4964C47.3197 34.3668 47.3615 34.3301 46.9891 34.6793C46.4088 35.2232 45.4697 36.0264 44.2047 36.9751C42.9397 37.9238 41.6746 38.8727 40.4095 39.189C38.9952 39.4429 38.6621 39.5324 37.5379 39.4599C34.8905 39.2423 33.2042 38.3719 32.4789 36.8488C32.1888 36.2323 31.9712 35.634 31.8262 35.0537C31.7174 34.4372 31.2106 33.731 30.976 33.1498C30.6054 32.2312 29.0241 27.8029 29.2417 25.4456C29.4592 23.0884 29.5318 20.7312 29.4592 18.374C29.423 16.452 29.8944 14.5299 30.8736 12.6079C31.3087 11.7375 31.8165 10.8853 32.3967 10.0512C33.0132 9.21712 33.9017 8.45556 35.0622 7.76653C35.6812 7.6766 38.0046 7.33237 39.0889 7.1715C40.5032 6.91765 41.7725 4.92941 42.8967 5.00194C45.544 5.21952 47.2303 6.08988 47.9556 7.613C48.263 8.15928 49.1527 9.46027 49.2598 11.248C49.3324 12.8073 49.423 14.3486 49.5318 15.8717C49.6769 17.3586 49.6769 18.791 49.5318 20.1691ZM48.3351 13.0431C48.2988 13.6958 48.2807 14.3486 48.2807 15.0014C48.3532 17.2498 48.462 19.4982 48.6071 21.7466C48.7521 23.995 48.6615 26.2435 48.3351 28.4919C48.1538 29.7249 47.8455 30.9216 47.4103 32.0821C47.0114 33.2426 47.0511 33.1799 46.5539 34.1897C46.1912 34.5886 45.5747 34.9694 44.7044 35.332C43.8703 35.7309 43.8884 36.0263 43.1408 36.3656C42.0891 36.6557 41.0374 38.1202 39.9857 38.229C38.9341 38.3741 38.0093 39.0247 37.2115 38.9159C36.3774 38.8071 35.6702 38.6077 35.09 38.3176C34.5098 38.0637 34.0927 37.701 33.8389 37.2296C33.3311 36.2867 33.1355 35.0776 32.7509 34.4009C31.8704 33.18 31.4028 31.6767 31.2379 31.2824C30.2588 28.9418 29.6566 27.7596 30.4384 24.0313C30.5835 21.7829 30.6741 19.5345 30.7104 17.2861C30.7829 15.7267 31.1818 14.2217 31.9071 12.7711C32.6324 11.2842 33.7748 9.86989 35.3341 8.52809C36.6688 7.56269 39.3971 7.60668 40.4488 7.49788C41.5005 7.35282 42.4252 5.43711 43.223 5.54591C44.0571 5.6547 44.7643 5.85416 45.3445 6.14428C45.9248 6.39813 46.3418 6.76078 46.5957 7.23222C47.2551 8.19522 47.5714 8.82774 47.8876 9.77653C48.2039 10.4091 48.2807 11.1314 48.3351 13.0431Z" fill="#F3BB41"/>
<path fill-rule="evenodd" clip-rule="evenodd" d="M48.2807 15.0014C48.2807 14.3486 48.2988 13.6958 48.3351 13.0431C48.2807 11.1314 48.2039 10.4091 47.8876 9.77653C47.5714 8.82774 47.2551 8.19522 46.5957 7.23222C46.3418 6.76078 45.9248 6.39813 45.3445 6.14428C44.7643 5.85416 44.0571 5.6547 43.223 5.54591C42.4252 5.43711 41.5005 7.35282 40.4488 7.49788C39.3971 7.60668 36.6688 7.56269 35.3341 8.52809C33.7748 9.86989 32.6324 11.2842 31.9071 12.7711C31.1818 14.2217 30.7829 15.7267 30.7104 17.2861C30.6741 19.5345 30.5835 21.7829 30.4384 24.0313C29.6566 27.7596 30.2588 28.9418 31.2379 31.2824C31.4028 31.6767 31.8704 33.18 32.7509 34.4009C33.1355 35.0776 33.3311 36.2867 33.8389 37.2296C34.0927 37.701 34.5098 38.0637 35.09 38.3176C35.6702 38.6077 36.3774 38.8071 37.2115 38.9159C38.0093 39.0247 38.9341 38.3741 39.9857 38.229C41.0374 38.1202 42.0891 36.6557 43.1408 36.3656C43.8884 36.0263 43.8703 35.7309 44.7044 35.332C45.5747 34.9694 46.1912 34.5886 46.5539 34.1897C47.0511 33.1799 47.0114 33.2426 47.4103 32.0821C47.8455 30.9216 48.1538 29.7249 48.3351 28.4919C48.6615 26.2435 48.7521 23.995 48.6071 21.7466C48.462 19.4982 48.3532 17.2498 48.2807 15.0014ZM44.5273 21.6378C44.4185 19.8246 44.5273 18.0476 44.8537 16.3069C44.8899 14.7475 44.219 13.7865 42.841 13.4238C42.0431 13.2425 41.1184 13.2607 40.0667 13.4782C39.0513 13.6958 38.1084 14.0585 37.2381 14.5662C36.0776 15.219 35.1891 16.5949 34.5726 17.429C33.9561 18.2268 33.5028 19.0609 33.2127 19.9313C32.6324 21.7083 32.5236 22.7983 32.8863 24.4665C33.2852 26.1347 34.3187 27.7485 35.9869 29.3078C37.0023 30.2145 38.2172 30.7222 39.6315 30.831C41.0459 30.9398 42.4239 30.6496 43.7657 29.9606C44.491 29.5617 44.9443 29.1265 45.1257 28.6551C45.3432 28.1474 45.3976 27.6215 45.2888 27.0776C44.9262 25.2643 44.6723 23.4511 44.5273 21.6378Z" fill="#F3BB41"/>
<path fill-rule="evenodd" clip-rule="evenodd" d="M49.4463 26.9087C49.3306 28.2054 49.1234 29.4919 48.8247 30.7682C48.6071 31.6749 48.2626 32.5815 47.7911 33.4881C47.7407 33.5812 47.6961 33.6639 47.6563 33.7378C47.3239 34.355 47.3217 34.3591 46.9891 34.6709C46.4088 35.2149 45.4697 36.018 44.2047 36.9668L44.2037 36.9675C42.939 37.916 41.6743 38.8645 40.4095 39.1807C40.2752 39.2048 40.1505 39.2274 40.0341 39.2486C38.9248 39.4501 38.5553 39.5172 37.5379 39.4516C34.8905 39.234 33.2042 38.3636 32.4789 36.8405C32.1888 36.224 31.9712 35.6256 31.8262 35.0454C31.7576 34.6569 31.531 34.2328 31.3141 33.8269C31.1868 33.5885 31.0628 33.3565 30.976 33.1415C30.6054 32.2229 29.0241 27.7945 29.2417 25.4373C29.4592 23.0801 29.5318 20.7229 29.4592 18.3657C29.423 16.4436 29.8944 14.5216 30.8736 12.5996C31.3087 11.7292 31.8165 10.877 32.3967 10.0429C33.0132 9.20879 33.9017 8.44723 35.0622 7.7582C35.1984 7.7384 35.4173 7.70628 35.6874 7.6665C33.5443 9.83411 32.2212 12.814 32.2212 16.103C32.2212 17.6451 32.5121 19.1192 33.0419 20.4735C32.6145 21.9408 32.5626 22.9692 32.8863 24.4582C33.2852 26.1263 34.3187 27.7401 35.9869 29.2995C37.0023 30.2061 38.2172 30.7138 39.6315 30.8226C41.0459 30.9314 42.4239 30.6413 43.7657 29.9523C44.491 29.5534 44.9443 29.1182 45.1257 28.6467C45.2091 28.4521 45.2685 28.2548 45.304 28.0548C46.7776 27.923 48.1746 27.5248 49.4463 26.9087Z" fill="#F3BB41"/>
<path fill-rule="evenodd" clip-rule="evenodd" d="M76.7403 19.1878C76.8129 21.0736 76.8129 22.8868 76.7403 24.6275C76.6678 26.3682 76.4321 28.0908 76.0332 29.7953C75.8156 30.7019 75.4711 31.6085 74.9996 32.5151C74.5282 33.3855 74.57 33.3488 74.1976 33.6979C72.6665 34.1875 72.566 35.3613 71.9335 35.6158C70.9847 35.6158 70.3522 38.2076 65.9245 38.5239C62.3823 38.7769 60.4266 36.8584 59.8914 35.8675C59.6013 35.2509 59.3837 34.6526 59.2387 34.0723C59.1299 33.4558 59.0573 32.8212 59.0211 32.1684C58.9123 29.8112 56.4366 26.8215 56.6542 24.4643C57.0812 21.0599 56.8412 18.3314 56.6677 17.3927C56.6315 15.4706 57.1029 13.5486 58.0821 11.6266C58.5172 10.7562 59.0249 9.904 59.6052 9.06991C60.2217 8.23581 61.1102 7.47425 62.2707 6.78522C64.7004 5.40716 67.6922 4.82692 71.2462 5.04451C71.899 5.08077 72.4611 5.22583 72.9325 5.47968C73.404 5.69727 73.821 5.95113 74.1837 6.24125C74.8727 6.85775 75.4167 7.51052 75.8156 8.19955C76.2145 8.85232 76.4321 9.54135 76.4683 10.2666C76.5409 11.826 76.6315 13.3673 76.7403 14.8904C76.8854 16.3773 76.8854 17.8097 76.7403 19.1878ZM75.5436 12.0618C75.5073 12.7145 75.4892 13.3673 75.4892 14.0201C75.5617 16.2685 75.6705 18.5169 75.8156 20.7653C75.9606 23.0137 75.87 25.2622 75.5436 27.5106C75.3623 28.7436 75.054 29.9403 74.6188 31.1008C74.2199 32.2613 74.2596 32.1986 73.7624 33.2084C73.2582 33.3989 72.1232 33.9697 71.6172 34.7287C71.301 34.7287 69.4034 36.9426 67.5058 37.5751C65.9877 38.0811 63.5377 37.6267 62.5025 37.3362C61.9223 37.0823 61.5052 36.7197 61.2514 36.2482C60.7437 35.3053 60.381 34.3625 60.1634 33.4196C59.9821 32.4404 59.9155 31.566 59.5992 30.301C58.6201 27.9604 57.0691 26.7782 57.8509 23.0499C57.9838 22.223 57.9516 18.2086 57.9189 16.3047C57.9914 14.7454 58.3903 13.2404 59.1156 11.7898C59.8409 10.3029 60.9832 8.88858 62.5426 7.54678C62.9778 7.18413 63.4674 6.85775 64.0114 6.56763C64.5916 6.24125 65.2806 6.00553 66.0785 5.86047C68.7983 5.35276 70.9923 5.47969 72.6605 6.24125C74.365 6.96654 75.3079 8.25395 75.4892 10.1035C75.5617 10.7562 75.5798 11.409 75.5436 12.0618Z" fill="#F3BB41"/>
<path fill-rule="evenodd" clip-rule="evenodd" d="M75.4892 14.0201C75.4892 13.3673 75.5073 12.7145 75.5436 12.0618C75.5798 11.409 75.5617 10.7562 75.4892 10.1035C75.3079 8.25395 74.365 6.96654 72.6605 6.24125C70.9923 5.47969 68.7983 5.35276 66.0785 5.86047C65.2806 6.00553 64.5916 6.24125 64.0114 6.56763C63.4674 6.85775 62.9778 7.18413 62.5426 7.54678C60.9832 8.88858 59.8409 10.3029 59.1156 11.7898C58.3903 13.2404 57.9914 14.7454 57.9189 16.3047C57.9516 18.2086 57.9838 22.223 57.8509 23.0499C57.0691 26.7782 58.6201 27.9604 59.5992 30.301C59.9155 31.566 59.9821 32.4404 60.1634 33.4196C60.381 34.3625 60.7437 35.3053 61.2514 36.2482C61.5052 36.7197 61.9223 37.0823 62.5025 37.3362C63.5377 37.6267 65.9877 38.0811 67.5058 37.5751C69.4034 36.9426 71.301 34.7287 71.6172 34.7287C72.1232 33.9697 73.2582 33.3989 73.7624 33.2084C74.2596 32.1986 74.2199 32.2613 74.6188 31.1008C75.054 29.9403 75.3623 28.7436 75.5436 27.5106C75.87 25.2622 75.9606 23.0137 75.8156 20.7653C75.6705 18.5169 75.5617 16.2685 75.4892 14.0201ZM71.7358 20.6565C71.627 18.8433 71.6172 17.018 71.4296 15.3256C71.1132 14.0745 71.4275 12.8052 70.0495 12.4425C69.2516 12.2612 68.3269 12.2793 67.2752 12.4969C66.2598 12.7145 65.9494 13.0772 65.0791 13.5849C63.9186 14.2376 63.6626 14.9811 63.0461 15.8152C62.4296 16.613 61.9763 17.4471 61.6862 18.3174C61.106 20.0944 60.9972 21.817 61.3598 23.4852C61.7587 25.1534 61.5272 26.7672 63.1954 28.3265C64.2108 29.2332 65.4257 29.7409 66.84 29.8497C68.2543 29.9585 69.6324 29.6683 70.9742 28.9793C71.6995 28.5804 72.1528 28.1452 72.3341 27.6738C72.5517 27.1661 72.6061 26.6402 72.4973 26.0962C72.1347 24.283 71.8808 22.4698 71.7358 20.6565Z" fill="#F3BB41"/>
<path fill-rule="evenodd" clip-rule="evenodd" d="M76.4533 10.063C76.3896 9.41207 76.177 8.7909 75.8156 8.1995C75.4167 7.51046 74.8727 6.8577 74.1837 6.24119C73.821 5.95107 73.404 5.69722 72.9325 5.47963C72.4611 5.22578 71.899 5.08072 71.2462 5.04445C67.6922 4.82686 64.7004 5.4071 62.2707 6.78517C61.1102 7.4742 60.2217 8.23576 59.6052 9.06985C59.0249 9.90394 58.5172 10.7562 58.0821 11.6265C57.1029 13.5486 56.6315 15.4706 56.6677 17.3926C56.8412 18.3313 57.0812 21.0598 56.6542 24.4642C56.5375 25.7286 57.1956 27.175 57.8478 28.6081C58.4115 29.8468 58.9706 31.0756 59.0211 32.1684C59.0573 32.8212 59.1299 33.4558 59.2387 34.0723C59.3837 34.6525 59.6013 35.2509 59.8914 35.8674C60.4266 36.8583 62.3823 38.7768 65.9245 38.5238C68.9152 38.3102 70.1744 37.0584 70.9691 36.2684C71.3509 35.8888 71.6256 35.6158 71.9335 35.6158C72.1751 35.5185 72.339 35.2873 72.5347 35.0112C72.8152 34.6156 73.1608 34.1281 73.8933 33.8115C70.1251 33.7787 66.7714 32.0091 64.5938 29.2642C64.0918 29.0233 63.6257 28.7107 63.1954 28.3265C61.9376 27.1507 61.7598 25.944 61.5774 24.7064C61.5179 24.3026 61.4579 23.8955 61.3598 23.4851C60.9972 21.8169 61.106 20.0944 61.6862 18.3174C61.9763 17.447 62.4296 16.6129 63.0461 15.8151C63.193 15.6164 63.3194 15.4229 63.4424 15.2345L63.4424 15.2345L63.4424 15.2345C63.8359 14.632 64.195 14.0821 65.0791 13.5848C65.2528 13.4835 65.4043 13.3879 65.5435 13.2981C67.7127 11.1434 70.7009 9.81201 74 9.81201C74.8408 9.81201 75.6613 9.89848 76.4533 10.063Z" fill="#F3BB41"/>
<path d="M85.0736 13.1408C85.6901 12.9958 86.2704 12.887 86.8143 12.8144C87.3583 12.7056 87.9023 12.5787 88.4462 12.4337C88.8452 12.3611 89.099 12.1617 89.2078 11.8353C89.3529 11.5089 89.3891 11.2188 89.3166 10.9649C89.2441 10.6748 89.0627 10.5842 88.7726 10.6929C88.5188 10.7655 88.2831 10.838 88.0655 10.9105L86.9775 11.3457C86.6511 11.4545 86.3066 11.5996 85.944 11.7809C85.6901 11.8897 85.4725 12.0347 85.2912 12.2161C85.1099 12.3974 85.0374 12.7056 85.0736 13.1408Z" fill="#F3BB41"/>
<path d="M90.0238 16.8942C89.8787 16.3503 89.7518 15.8426 89.643 15.3711C89.5705 14.8634 89.4798 14.3738 89.371 13.9024C89.3347 13.7211 89.2803 13.5397 89.2078 13.3584C89.1715 13.1771 89.0084 13.1227 88.7182 13.1952C88.1017 13.3403 87.449 13.4128 86.7599 13.4128C86.0709 13.4128 85.4725 13.6123 84.9648 14.0112C84.6022 14.265 84.5296 14.6458 84.7472 15.1535C84.9648 15.625 85.0374 16.0601 84.9648 16.4591C84.9286 16.4953 84.9104 16.5497 84.9104 16.6222C84.9104 20.0311 84.9286 23.44 84.9648 26.8489C85.0374 30.2216 85.0192 33.5942 84.9104 36.9668C84.9104 37.3657 84.9648 37.6377 85.0736 37.7828C85.2187 37.9641 85.5269 38.0366 85.9984 38.0004C86.4698 37.9641 86.9231 37.8734 87.3583 37.7284C87.8298 37.6196 88.3012 37.5833 88.7726 37.6196C89.3891 37.6559 89.7699 37.5289 89.915 37.2388C90.06 36.985 90.1144 36.6404 90.0782 36.2053C90.0056 35.0085 90.0238 33.8118 90.1326 32.615C90.2414 31.382 90.2958 30.1672 90.2958 28.9704C90.2958 26.9396 90.2776 24.9269 90.2414 22.9323C90.2414 20.9015 90.1688 18.8888 90.0238 16.8942Z" fill="#F3BB41"/>
<path d="M85.2912 6.88514C85.4 7.71923 85.4907 8.29947 85.5632 8.62585C85.6357 8.95224 85.7808 9.13356 85.9984 9.16982C86.216 9.16982 86.5786 9.13356 87.0863 9.06103C87.7028 8.95223 88.0111 8.57146 88.0111 7.91869C88.0473 7.41098 88.0292 6.90327 87.9567 6.39556C87.8841 5.85159 87.8116 5.32575 87.7391 4.81804C87.7391 4.67298 87.721 4.52792 87.6847 4.38287C87.6484 4.23781 87.5034 4.16528 87.2495 4.16528C85.6901 4.09275 85.0192 4.83617 85.2368 6.39556V6.72195C85.2731 6.79448 85.2912 6.84887 85.2912 6.88514Z" fill="#F3BB41"/>
<path d="M88.9902 3.07733C89.643 3.22239 89.9512 3.1136 89.915 2.75095C89.8787 2.35203 89.8787 1.98939 89.915 1.663C89.9512 1.40915 89.9512 1.15529 89.915 0.901441C89.8787 0.647586 89.6611 0.556923 89.2622 0.629454C88.5732 0.665718 87.9023 0.792645 87.2495 1.01023C86.633 1.22782 86.0709 1.57234 85.5632 2.04378C85.3093 2.26137 85.1462 2.56962 85.0736 2.96854C85.0374 3.33119 85.0918 3.65757 85.2368 3.94769C85.3093 4.12901 85.4725 4.14714 85.7264 4.00208C85.9802 3.85703 86.216 3.76636 86.4336 3.7301C86.8325 3.65757 87.2314 3.5669 87.6303 3.45811C88.0655 3.34932 88.5188 3.22239 88.9902 3.07733Z" fill="#F3BB41"/>
<path fill-rule="evenodd" clip-rule="evenodd" d="M89.915 2.75095C89.9512 3.1136 89.643 3.22239 88.9902 3.07733C88.5188 3.22239 88.0655 3.34932 87.6303 3.45811C87.2314 3.5669 86.8325 3.65757 86.4336 3.7301C86.216 3.76636 85.9802 3.85703 85.7264 4.00208C85.4725 4.14714 85.3093 4.12901 85.2368 3.94769C85.0918 3.65757 85.0374 3.33119 85.0736 2.96854C85.1462 2.56962 85.3093 2.26137 85.5632 2.04378C86.0709 1.57234 86.633 1.22782 87.2495 1.01023C87.9023 0.792645 88.5732 0.665718 89.2622 0.629454C89.6611 0.556923 89.8787 0.647586 89.915 0.901441C89.9512 1.15529 89.9512 1.40915 89.915 1.663C89.8787 1.98939 89.8787 2.35203 89.915 2.75095ZM85.5632 8.62585C85.4907 8.29947 85.4 7.71923 85.2912 6.88514C85.2912 6.84887 85.2731 6.79448 85.2368 6.72195V6.39556C85.0192 4.83617 85.6901 4.09275 87.2495 4.16528C87.5034 4.16528 87.6484 4.23781 87.6847 4.38287C87.721 4.52792 87.7391 4.67298 87.7391 4.81804C87.8116 5.32575 87.8841 5.85159 87.9567 6.39556C88.0292 6.90327 88.0473 7.41098 88.0111 7.91869C88.0111 8.57146 87.7028 8.95223 87.0863 9.06103C86.5786 9.13356 86.216 9.16982 85.9984 9.16982C85.7808 9.13356 85.6357 8.95224 85.5632 8.62585ZM86.8143 12.8144C86.2704 12.887 85.6901 12.9958 85.0736 13.1408C85.0374 12.7056 85.1099 12.3974 85.2912 12.2161C85.4725 12.0347 85.6901 11.8897 85.944 11.7809C86.3066 11.5996 86.6511 11.4545 86.9775 11.3457L88.0655 10.9105C88.2831 10.838 88.5188 10.7655 88.7726 10.6929C89.0627 10.5842 89.2441 10.6748 89.3166 10.9649C89.3891 11.2188 89.3529 11.5089 89.2078 11.8353C89.099 12.1617 88.8452 12.3611 88.4462 12.4337C87.9023 12.5787 87.3583 12.7056 86.8143 12.8144ZM89.643 15.3711C89.7518 15.8426 89.8787 16.3503 90.0238 16.8942C90.1688 18.8888 90.2414 20.9015 90.2414 22.9323C90.2776 24.9269 90.2958 26.9396 90.2958 28.9704C90.2958 30.1672 90.2414 31.382 90.1326 32.615C90.0238 33.8118 90.0056 35.0085 90.0782 36.2053C90.1144 36.6404 90.06 36.985 89.915 37.2388C89.7699 37.5289 89.3891 37.6559 88.7726 37.6196C88.3012 37.5833 87.8298 37.6196 87.3583 37.7284C86.9231 37.8734 86.4698 37.9641 85.9984 38.0004C85.5269 38.0366 85.2187 37.9641 85.0736 37.7828C84.9648 37.6377 84.9104 37.3657 84.9104 36.9668C85.0192 33.5942 85.0374 30.2216 84.9648 26.8489C84.9286 23.44 84.9104 20.0311 84.9104 16.6222C84.9104 16.5497 84.9286 16.4953 84.9648 16.4591C85.0374 16.0601 84.9648 15.625 84.7472 15.1535C84.5296 14.6458 84.6022 14.265 84.9648 14.0112C85.4725 13.6123 86.0709 13.4128 86.7599 13.4128C87.449 13.4128 88.1017 13.3403 88.7182 13.1952C89.0084 13.1227 89.1715 13.1771 89.2078 13.3584C89.2803 13.5397 89.3347 13.7211 89.371 13.9024C89.4798 14.3738 89.5705 14.8634 89.643 15.3711Z" fill="#F3BB41"/>
<path fill-rule="evenodd" clip-rule="evenodd" d="M89.915 2.75095C89.9512 3.1136 89.643 3.22239 88.9902 3.07733C88.5188 3.22239 88.0655 3.34932 87.6303 3.45811C87.2314 3.5669 86.8325 3.65757 86.4336 3.7301C86.216 3.76636 85.9802 3.85703 85.7264 4.00208C85.4725 4.14714 85.3093 4.12901 85.2368 3.94769C85.0918 3.65757 85.0374 3.33119 85.0736 2.96854C85.1462 2.56962 85.3093 2.26137 85.5632 2.04378C86.0709 1.57234 86.633 1.22782 87.2495 1.01023C87.9023 0.792645 88.5732 0.665718 89.2622 0.629454C89.6611 0.556923 89.8787 0.647586 89.915 0.901441C89.9512 1.15529 89.9512 1.40915 89.915 1.663C89.8787 1.98939 89.8787 2.35203 89.915 2.75095ZM85.5632 8.62585C85.4907 8.29947 85.4 7.71923 85.2912 6.88514C85.2912 6.84887 85.2731 6.79448 85.2368 6.72195V6.39556C85.0192 4.83617 85.6901 4.09275 87.2495 4.16528C87.5034 4.16528 87.6484 4.23781 87.6847 4.38287C87.721 4.52792 87.7391 4.67298 87.7391 4.81804C87.8116 5.32575 87.8841 5.85159 87.9567 6.39556C88.0292 6.90327 88.0473 7.41098 88.0111 7.91869C88.0111 8.57146 87.7028 8.95223 87.0863 9.06103C86.5786 9.13356 86.216 9.16982 85.9984 9.16982C85.7808 9.13356 85.6357 8.95224 85.5632 8.62585ZM86.8143 12.8144C86.2704 12.887 85.6901 12.9958 85.0736 13.1408C85.0374 12.7056 85.1099 12.3974 85.2912 12.2161C85.4725 12.0347 85.6901 11.8897 85.944 11.7809C86.3066 11.5996 86.6511 11.4545 86.9775 11.3457L88.0655 10.9105C88.2831 10.838 88.5188 10.7655 88.7726 10.6929C89.0627 10.5842 89.2441 10.6748 89.3166 10.9649C89.3891 11.2188 89.3529 11.5089 89.2078 11.8353C89.099 12.1617 88.8452 12.3611 88.4462 12.4337C87.9023 12.5787 87.3583 12.7056 86.8143 12.8144ZM89.643 15.3711C89.7518 15.8426 89.8787 16.3503 90.0238 16.8942C90.1688 18.8888 90.2414 20.9015 90.2414 22.9323C90.2776 24.9269 90.2958 26.9396 90.2958 28.9704C90.2958 30.1672 90.2414 31.382 90.1326 32.615C90.0238 33.8118 90.0056 35.0085 90.0782 36.2053C90.1144 36.6404 90.06 36.985 89.915 37.2388C89.7699 37.5289 89.3891 37.6559 88.7726 37.6196C88.3012 37.5833 87.8298 37.6196 87.3583 37.7284C86.9231 37.8734 86.4698 37.9641 85.9984 38.0004C85.5269 38.0366 85.2187 37.9641 85.0736 37.7828C84.9648 37.6377 84.9104 37.3657 84.9104 36.9668C85.0192 33.5942 85.0374 30.2216 84.9648 26.8489C84.9286 23.44 84.9104 20.0311 84.9104 16.6222C84.9104 16.5497 84.9286 16.4953 84.9648 16.4591C85.0374 16.0601 84.9648 15.625 84.7472 15.1535C84.5296 14.6458 84.6022 14.265 84.9648 14.0112C85.4725 13.6123 86.0709 13.4128 86.7599 13.4128C87.449 13.4128 88.1017 13.3403 88.7182 13.1952C89.0084 13.1227 89.1715 13.1771 89.2078 13.3584C89.2803 13.5397 89.3347 13.7211 89.371 13.9024C89.4798 14.3738 89.5705 14.8634 89.643 15.3711Z" fill="#F3BB41"/>
<path fill-rule="evenodd" clip-rule="evenodd" d="M89.9694 9.605C89.2803 9.38741 88.6094 9.35115 87.9567 9.49621L86.1072 9.82259C85.5632 9.89512 85.1643 9.85886 84.9104 9.7138C84.6566 9.56874 84.5659 9.18796 84.6384 8.57145C84.7472 7.99122 84.6747 7.35658 84.4208 6.66755C84.1307 5.90599 84.0763 5.12629 84.2577 4.32847C84.4752 3.53064 84.439 2.75095 84.1489 1.98939C84.0763 1.7718 84.1851 1.62674 84.4752 1.55421C85.2731 1.26409 86.0528 0.973972 86.8143 0.683853C87.5759 0.357469 88.3737 0.139879 89.2078 0.0310835C89.7155 -0.0414452 90.0963 0.0129521 90.3502 0.194276C90.604 0.339336 90.7491 0.720115 90.7853 1.33662C90.8579 2.35203 90.5 3.5 89.5342 3.7301C89.0627 3.76636 88.7908 3.91142 88.7182 4.16528C88.6457 4.41913 88.6276 4.70925 88.6638 5.03563C88.7001 5.50707 88.7364 5.99665 88.7726 6.50436C88.8089 6.9758 88.827 7.46538 88.827 7.97308C88.8633 8.29947 88.954 8.49893 89.099 8.57145C89.2803 8.64398 89.5161 8.57429 89.7518 8.68025C90.2901 8.92226 90.4408 9.80446 90.5133 9.98578C90.5133 10.9858 89.9331 12.1073 89.9694 12.4337L90.0782 13.4128L90.5133 15.4799C90.6947 16.1327 90.8035 16.8036 90.8397 17.4926C90.9123 19.1245 90.9485 20.7564 90.9485 22.3884C90.9848 23.984 91.0211 25.5978 91.0573 27.2297C91.0936 28.8254 91.0573 30.421 90.9485 32.0167C90.8397 33.5761 90.8397 35.1536 90.9485 36.7492C90.9485 36.8943 90.9304 37.0575 90.8941 37.2388C90.8941 37.4201 91.5 38 91.3293 38.4356C90.7853 38.6531 90.187 38.6169 89.5342 38.3268C89.0265 38.1092 88.4825 38.091 87.9023 38.2724C87.322 38.4899 86.7599 38.635 86.216 38.7075C85.3093 38.7801 84.7291 38.7075 84.4752 38.4899C84.2214 38.3086 84.1126 37.7647 84.1489 36.858C84.2214 33.8843 84.2395 30.9106 84.2033 27.9369C84.2033 24.9269 84.1851 21.935 84.1489 18.9613C84.1489 18.236 84.1126 17.4926 84.0401 16.731C84.0038 15.9695 83.9494 15.2261 83.8769 14.5008C83.6956 12.7238 84.4027 11.5452 85.9984 10.9649L87.9567 10.2034C88.6094 9.91325 89.2803 9.7138 89.9694 9.605ZM89.915 2.75095C89.9512 3.1136 89.643 3.22239 88.9902 3.07733C88.5188 3.22239 88.0655 3.34932 87.6303 3.45811C87.2314 3.5669 86.8325 3.65757 86.4336 3.7301C86.216 3.76636 85.9802 3.85703 85.7264 4.00208C85.4725 4.14714 85.3093 4.12901 85.2368 3.94769C85.0918 3.65757 85.0374 3.33119 85.0736 2.96854C85.1462 2.56962 85.3093 2.26137 85.5632 2.04378C86.0709 1.57234 86.633 1.22782 87.2495 1.01023C87.9023 0.792645 88.5732 0.665718 89.2622 0.629454C89.6611 0.556923 89.8787 0.647586 89.915 0.901441C89.9512 1.15529 89.9512 1.40915 89.915 1.663C89.8787 1.98939 89.8787 2.35203 89.915 2.75095ZM85.5632 8.62585C85.4907 8.29947 85.4 7.71923 85.2912 6.88514C85.2912 6.84887 85.2731 6.79448 85.2368 6.72195V6.39556C85.0192 4.83617 85.6901 4.09275 87.2495 4.16528C87.5034 4.16528 87.6484 4.23781 87.6847 4.38287C87.721 4.52792 87.7391 4.67298 87.7391 4.81804C87.8116 5.32575 87.8841 5.85159 87.9567 6.39556C88.0292 6.90327 88.0473 7.41098 88.0111 7.91869C88.0111 8.57146 87.7028 8.95223 87.0863 9.06103C86.5786 9.13356 86.216 9.16982 85.9984 9.16982C85.7808 9.13356 85.6357 8.95224 85.5632 8.62585ZM86.8143 12.8144C86.2704 12.887 85.6901 12.9958 85.0736 13.1408C85.0374 12.7056 85.1099 12.3974 85.2912 12.2161C85.4725 12.0347 85.6901 11.8897 85.944 11.7809C86.3066 11.5996 86.6511 11.4545 86.9775 11.3457L88.0655 10.9105C88.2831 10.838 88.5188 10.7655 88.7726 10.6929C89.0627 10.5842 89.2441 10.6748 89.3166 10.9649C89.3891 11.2188 89.3529 11.5089 89.2078 11.8353C89.099 12.1617 88.8452 12.3611 88.4462 12.4337C87.9023 12.5787 87.3583 12.7056 86.8143 12.8144ZM89.643 15.3711C89.7518 15.8426 89.8787 16.3503 90.0238 16.8942C90.1688 18.8888 90.2414 20.9015 90.2414 22.9323C90.2776 24.9269 90.2958 26.9396 90.2958 28.9704C90.2958 30.1672 90.2414 31.382 90.1326 32.615C90.0238 33.8118 90.0056 35.0085 90.0782 36.2053C90.1144 36.6404 90.06 36.985 89.915 37.2388C89.7699 37.5289 89.3891 37.6559 88.7726 37.6196C88.3012 37.5833 87.8298 37.6196 87.3583 37.7284C86.9231 37.8734 86.4698 37.9641 85.9984 38.0004C85.5269 38.0366 85.2187 37.9641 85.0736 37.7828C84.9648 37.6377 84.9104 37.3657 84.9104 36.9668C85.0192 33.5942 85.0374 30.2216 84.9648 26.8489C84.9286 23.44 84.9104 20.0311 84.9104 16.6222C84.9104 16.5497 84.9286 16.4953 84.9648 16.4591C85.0374 16.0601 84.9648 15.625 84.7472 15.1535C84.5296 14.6458 84.6022 14.265 84.9648 14.0112C85.4725 13.6123 86.0709 13.4128 86.7599 13.4128C87.449 13.4128 88.1017 13.3403 88.7182 13.1952C89.0084 13.1227 89.1715 13.1771 89.2078 13.3584C89.2803 13.5397 89.3347 13.7211 89.371 13.9024C89.4798 14.3738 89.5705 14.8634 89.643 15.3711Z" fill="#F3BB41"/>
<path fill-rule="evenodd" clip-rule="evenodd" d="M87.9567 9.49621C88.6094 9.35115 89.2803 9.38741 89.9694 9.605C89.2803 9.7138 88.6094 9.91325 87.9567 10.2034L85.9984 10.9649C84.4027 11.5452 83.6956 12.7238 83.8769 14.5008C83.9494 15.2261 84.0038 15.9695 84.0401 16.731C84.1126 17.4926 84.1489 18.236 84.1489 18.9613C84.1851 21.935 84.2033 24.9269 84.2033 27.9369C84.2395 30.9106 84.2214 33.8843 84.1489 36.858C84.1126 37.7647 84.2214 38.3086 84.4752 38.4899C84.7291 38.7075 85.3093 38.7801 86.216 38.7075C86.7599 38.635 87.322 38.4899 87.9023 38.2724C88.0053 38.2402 88.1071 38.2143 88.2078 38.1947C86.8089 35.9646 86 33.3268 86 30.5C86 26.1669 87.9007 22.2777 90.9138 19.6207C90.8959 18.9113 90.8713 18.202 90.8397 17.4926C90.8035 16.8036 90.6947 16.1327 90.5133 15.4799L90.0782 13.4128L89.9694 12.4337C89.9549 12.3037 90.0382 12.0476 90.1438 11.7234C90.3032 11.2334 90.5133 10.5876 90.5133 9.98578C90.5007 9.95407 90.4856 9.90093 90.4665 9.83352C90.3763 9.51548 90.196 8.87994 89.7518 8.68025C89.6224 8.6221 89.4931 8.61685 89.3727 8.61197C89.2737 8.60795 89.1808 8.60418 89.099 8.57145C88.954 8.49893 88.8633 8.29947 88.827 7.97308C88.827 7.46538 88.8089 6.9758 88.7726 6.50436C88.7364 5.99665 88.7001 5.50707 88.6638 5.03563C88.6276 4.70925 88.6457 4.41913 88.7182 4.16528C88.7908 3.91142 89.0627 3.76636 89.5342 3.7301C90.5 3.5 90.8579 2.35203 90.7853 1.33662C90.7491 0.720115 90.604 0.339336 90.3502 0.194276C90.0963 0.0129521 89.7155 -0.0414452 89.2078 0.0310835C88.3737 0.139879 87.5759 0.357469 86.8143 0.683853C86.0528 0.973972 85.2731 1.26409 84.4752 1.55421C84.1851 1.62674 84.0763 1.7718 84.1489 1.98939C84.439 2.75095 84.4752 3.53064 84.2577 4.32847C84.0763 5.12629 84.1307 5.90599 84.4208 6.66755C84.6747 7.35658 84.7472 7.99122 84.6384 8.57145C84.5659 9.18796 84.6566 9.56874 84.9104 9.7138C85.1643 9.85886 85.5632 9.89512 86.1072 9.82259L87.9567 9.49621Z" fill="#F3BB41"/>
<path d="M15.4341 17.214C15.1077 18.9547 14.9989 20.7317 15.1077 22.5449C15.2528 24.3582 15.5066 26.1714 15.8693 27.9847C15.9781 28.5286 15.9237 29.0545 15.7061 29.5622C15.5247 30.0336 15.0714 30.4688 14.3461 30.8677C13.0043 31.5568 11.6263 31.8469 10.212 31.7381C8.79762 31.6293 7.58275 31.1216 6.56734 30.215C4.89915 28.6556 3.8656 27.0418 3.46669 25.3736C3.10404 23.7054 3.21284 21.9828 3.79307 20.2059C4.08319 19.3355 4.53651 18.5014 5.15301 17.7036C5.76951 16.8695 6.658 16.1261 7.81847 15.4733C8.68883 14.9656 9.63171 14.6029 10.6471 14.3854C11.6988 14.1678 12.6236 14.1496 13.4214 14.331C14.7995 14.6936 15.4704 15.6546 15.4341 17.214ZM14.0198 20.4235C14.056 20.2421 14.0742 20.0789 14.0742 19.9339C14.1104 19.7888 14.1286 19.6438 14.1286 19.4987C14.1286 18.9185 14.1286 18.3382 14.1286 17.758C14.1286 17.1415 14.0923 16.5431 14.0198 15.9629C13.9835 15.6728 13.8384 15.4189 13.5846 15.2013C13.3307 14.9837 12.8955 14.8568 12.279 14.8205C11.6625 14.748 11.1911 14.8205 10.8647 15.0381C10.5746 15.2195 10.3389 15.4552 10.1576 15.7453C10.085 15.8904 9.99437 16.0535 9.88557 16.2349C9.81304 16.3799 9.74051 16.5431 9.66798 16.7244C8.94269 18.9003 8.83389 21.1125 9.3416 23.3609C9.52292 24.2675 9.83117 25.1379 10.2663 25.972C10.7015 26.8061 11.59 27.5314 12.9318 28.1479C13.1494 28.2567 13.367 28.3655 13.5846 28.4742C13.8384 28.583 14.1286 28.583 14.4549 28.4742C14.7451 28.3655 14.872 28.2385 14.8357 28.0935C14.8357 27.9484 14.8176 27.8034 14.7813 27.6583C14.6 26.4253 14.4187 25.2104 14.2373 24.0137C14.0923 22.8169 14.0198 21.6202 14.0198 20.4235ZM8.63443 15.9629C7.51022 16.5794 6.7124 17.214 6.24095 17.8668C5.80577 18.5196 5.46126 19.2086 5.2074 19.9339C4.51837 21.6746 4.31891 23.379 4.60903 25.0472C4.93542 26.7154 5.93271 28.3473 7.60089 29.943C8.43498 30.7045 9.37786 31.1397 10.4295 31.2485C11.4812 31.3573 12.5329 31.1216 13.5846 30.5413C14.1286 30.2512 14.4187 29.9792 14.4549 29.7254C14.5275 29.4715 14.1648 29.2177 13.367 28.9638C11.2274 28.2748 9.79491 27.1868 9.06961 25.7C8.27179 24.1043 7.87287 22.5268 7.87287 20.9674C7.87287 19.3718 8.12673 17.7036 8.63443 15.9629Z" fill="#000000"/>
<path fill-rule="evenodd" clip-rule="evenodd" d="M20.1123 21.0762C20.1848 22.962 20.1848 24.7752 20.1123 26.5159C20.0397 28.2567 19.804 29.9792 19.4051 31.6837C19.1875 32.5903 18.843 33.4969 18.3715 34.4035C17.9001 35.2739 17.942 35.2372 17.5695 35.5864C16.0384 36.0759 15.9379 37.2497 15.3054 37.5042C14.6729 37.7588 11.194 39.1906 9.92894 39.4635C8.9169 39.6819 8.0145 39.7352 7.05727 39.7345C4.40994 39.5169 2.72362 38.6466 1.99833 37.1235C1.70821 36.507 1.49062 35.9086 1.34556 35.3284C1.23677 34.7119 1.16424 34.0772 1.12797 33.4245C1.01918 31.0672 -0.191477 28.71 0.0261114 26.3528C0.2437 23.9956 0.112194 21.6383 0.0396646 19.2811C0.00339971 17.3591 0.474843 15.437 1.45399 13.515C1.88917 12.6446 2.39688 11.7924 2.97711 10.9583C3.59362 10.1242 4.48211 9.36268 5.64258 8.67365C8.07233 7.29558 11.0642 6.71535 14.6181 6.93293C15.2709 6.9692 15.833 7.11426 16.3044 7.36811C16.7759 7.5857 17.1929 7.83956 17.5556 8.12968C18.2446 8.74618 18.7886 9.39894 19.1875 10.088C19.5864 10.7407 19.804 11.4298 19.8403 12.1551C19.9128 13.7145 20.0035 15.2557 20.1123 16.7788C20.2573 18.2657 20.2573 19.6982 20.1123 21.0762ZM18.9155 13.9502C18.8792 14.6029 18.8611 15.2557 18.8611 15.9085C18.9336 18.1569 19.0424 20.4053 19.1875 22.6537C19.3326 24.9022 19.2419 27.1506 18.9155 29.399C18.7342 30.632 18.4259 31.8287 17.9908 32.9892C17.5918 34.1497 17.6315 34.0871 17.1343 35.0968C16.6301 35.2873 15.4952 35.8581 14.9892 36.6172C14.4831 37.3762 12.2482 38.1985 11.194 38.5147C10.3134 38.8599 9.2 39.4782 6.73089 39.1906C5.8968 39.0818 5.18964 38.8823 4.6094 38.5922C4.02916 38.3383 3.61211 37.9757 3.35826 37.5042C2.85055 36.5614 2.4879 35.6185 2.27031 34.6756C2.08899 33.6964 2.01646 32.6992 2.05273 31.6837C2.04261 30.6927 0.757312 28.5208 0.757312 27.7618C0.757312 27.0028 0.931647 25.5633 1.01882 24.9384C1.16387 22.69 1.25454 20.4416 1.2908 18.1932C1.36333 16.6338 1.76225 15.1288 2.48754 13.6782C3.21284 12.1913 4.35518 10.777 5.91457 9.43521C6.34975 9.07256 6.83932 8.74618 7.3833 8.45606C7.96353 8.12967 8.65256 7.89395 9.45039 7.7489C12.1703 7.24119 14.3643 7.36811 16.0325 8.12968C17.7369 8.85497 18.6798 10.1424 18.8611 11.9919C18.9336 12.6446 18.9518 13.2974 18.9155 13.9502Z" fill="#000000"/>
<path d="M42.8537 16.5574C42.5273 18.2981 42.4185 20.0751 42.5273 21.8883C42.6723 23.7016 42.9262 25.5148 43.2888 27.3281C43.3976 27.872 43.3432 28.3979 43.1257 28.9056C42.9443 29.377 42.491 29.8122 41.7657 30.2111C40.4239 30.9001 39.0459 31.1903 37.6315 31.0815C36.2172 30.9727 35.0023 30.465 33.9869 29.5583C32.3187 27.9989 31.2852 26.3852 30.8863 24.717C30.5236 23.0488 30.6324 21.9587 31.2127 20.1818C31.5028 19.3114 31.9561 18.4773 32.5726 17.6795C33.1891 16.8454 34.0776 15.4694 35.2381 14.8167C36.1084 14.309 37.0513 13.9463 38.0667 13.7287C39.1184 13.5111 40.0431 13.493 40.841 13.6743C42.219 14.037 42.8899 14.998 42.8537 16.5574ZM41.4393 19.7668C41.4756 19.5855 41.4937 19.4223 41.4937 19.2773C41.53 19.1322 41.5481 18.9871 41.5481 18.8421C41.5481 18.2618 41.5481 17.6816 41.5481 17.1014C41.5481 16.4849 41.5119 15.8865 41.4393 15.3063C41.4031 15.0161 41.258 14.7623 41.0042 14.5447C40.7503 14.3271 40.3151 14.2002 39.6986 14.1639C39.0821 14.0914 38.6107 14.1639 38.2843 14.3815C37.9942 14.5628 37.7585 14.7985 37.5771 15.0887C37.5046 15.2337 37.4139 15.3969 37.3052 15.5782C37.2326 15.7233 37.1601 15.8865 37.0876 16.0678C36.3623 18.2437 36.2535 20.4559 36.7612 22.7043C36.9425 23.6109 37.2507 24.4813 37.6859 25.3154C38.1211 26.1494 39.0096 26.8747 40.3514 27.4912C40.569 27.6 40.7866 27.7088 41.0042 27.8176C41.258 27.9264 41.5481 27.9264 41.8745 27.8176C42.1646 27.7088 42.2916 27.5819 42.2553 27.4368C42.2553 27.2918 42.2372 27.1467 42.2009 27.0017C42.0196 25.7687 41.8383 24.5538 41.6569 23.357C41.5119 22.1603 41.4393 20.9636 41.4393 19.7668ZM36.054 15.3063C34.9298 15.9228 34.132 16.5574 33.6605 17.2102C33.2254 17.8629 32.8808 19.1845 32.627 19.9098C31.9379 21.6505 31.7385 22.7224 32.0286 24.3906C32.355 26.0588 33.3523 27.6907 35.0205 29.2864C35.8546 30.0479 36.7974 30.4831 37.8491 30.5919C38.9008 30.7007 39.9525 30.465 41.0042 29.8847C41.5481 29.5946 41.8383 29.3226 41.8745 29.0688C41.947 28.8149 41.5844 28.5611 40.7866 28.3072C38.6469 27.6182 37.2145 26.5302 36.4892 25.0434C35.6914 23.4477 35.2925 21.8702 35.2925 20.3108C35.2925 18.7151 35.5463 17.047 36.054 15.3063Z" fill="#000000"/>
<path fill-rule="evenodd" clip-rule="evenodd" d="M47.5318 20.4196C47.6044 22.3054 47.6044 24.1186 47.5318 25.8593C47.4593 27.6 47.2236 29.3226 46.8247 31.0271C46.6071 31.9337 46.2626 32.8403 45.7911 33.7469C45.3197 34.6173 45.3615 34.5806 44.9891 34.9297C44.4088 35.4737 43.4697 36.2769 42.2047 37.2256C40.9397 38.1743 39.6746 39.1232 38.4095 39.4395C36.9952 39.6933 36.6621 39.7829 35.5379 39.7104C32.8905 39.4928 31.2042 38.6224 30.4789 37.0993C30.1888 36.4828 29.9712 35.8844 29.8262 35.3042C29.7174 34.6877 29.2106 33.9815 28.976 33.4003C28.6054 32.4817 27.0241 28.0533 27.2417 25.6961C27.4592 23.3389 27.5318 20.9817 27.4592 18.6245C27.423 16.7024 27.8944 14.7804 28.8736 12.8584C29.3087 11.988 29.8165 11.1358 30.3967 10.3017C31.0132 9.46761 31.9017 8.70605 33.0622 8.01702C33.6812 7.92708 36.0046 7.58286 37.0889 7.42199C38.5032 7.16814 39.7725 5.17989 40.8967 5.25242C43.544 5.47001 45.2303 6.34037 45.9556 7.86349C46.263 8.40976 47.1527 9.71076 47.2598 11.4984C47.3324 13.0578 47.423 14.5991 47.5318 16.1222C47.6769 17.6091 47.6769 19.0415 47.5318 20.4196ZM46.3351 13.2936C46.2988 13.9463 46.2807 14.5991 46.2807 15.2519C46.3532 17.5003 46.462 19.7487 46.6071 21.9971C46.7521 24.2455 46.6615 26.494 46.3351 28.7424C46.1538 29.9754 45.8455 31.1721 45.4103 32.3326C45.0114 33.4931 45.0511 33.4304 44.5539 34.4402C44.1912 34.8391 43.5747 35.2199 42.7044 35.5825C41.8703 35.9814 41.8884 36.2768 41.1408 36.6161C40.0891 36.9062 39.0374 38.3707 37.9857 38.4795C36.9341 38.6245 36.0093 39.2752 35.2115 39.1664C34.3774 39.0576 33.6702 38.8582 33.09 38.568C32.5098 38.3142 32.0927 37.9515 31.8389 37.4801C31.3311 36.5372 31.1355 35.3281 30.7509 34.6514C29.8704 33.4305 29.4028 31.9272 29.2379 31.5329C28.2588 29.1923 27.6566 28.01 28.4384 24.2818C28.5835 22.0334 28.6741 19.785 28.7104 17.5365C28.7829 15.9772 29.1818 14.4722 29.9071 13.0216C30.6324 11.5347 31.7748 10.1204 33.3341 8.77858C34.6688 7.81318 37.3971 7.85717 38.4488 7.74837C39.5005 7.60331 40.4252 5.6876 41.223 5.7964C42.0571 5.90519 42.7643 6.10465 43.3445 6.39477C43.9248 6.64862 44.3418 7.01127 44.5957 7.48271C45.2551 8.4457 45.5714 9.07823 45.8876 10.027C46.2039 10.6595 46.2807 11.3819 46.3351 13.2936Z" fill="#000000"/>
<path d="M69.4296 16.5136C69.6172 18.206 69.627 20.0313 69.7358 21.8445C69.8808 23.6577 70.1347 25.471 70.4973 27.2842C70.6061 27.8282 70.5517 28.354 70.3341 28.8618C70.1528 29.3332 69.6995 29.7684 68.9742 30.1673C67.6324 30.8563 66.2543 31.1464 64.84 31.0376C63.4257 30.9289 62.2108 30.4211 61.1954 29.5145C59.5272 27.9551 59.7587 26.3413 59.3598 24.6732C58.9972 23.005 59.106 21.2824 59.6862 19.5054C59.9763 18.6351 60.4296 17.801 61.0461 17.0032C61.6626 16.1691 61.9186 15.4256 63.0791 14.7729C63.9494 14.2652 64.2598 13.9025 65.2752 13.6849C66.3269 13.4673 67.2516 13.4492 68.0495 13.6305C69.4275 13.9932 69.1132 15.2624 69.4296 16.5136ZM68.6478 19.723C68.6841 19.5417 68.7022 19.3785 68.7022 19.2334C68.7385 19.0884 68.7566 18.9433 68.7566 18.7983C68.7566 18.218 68.7566 17.6378 68.7566 17.0576C68.7566 16.441 68.7204 15.8427 68.6478 15.2624C68.6116 14.9723 68.4665 14.7185 68.2127 14.5009C67.9588 14.2833 67.5236 14.1564 66.9071 14.1201C66.2906 14.0476 65.8192 14.1201 65.4928 14.3377C65.2027 14.519 64.9669 14.7547 64.7856 15.0449C64.7131 15.1899 64.6224 15.3531 64.5136 15.5344C64.4411 15.6795 64.3686 15.8427 64.296 16.024C63.5708 18.1999 63.462 20.412 63.9697 22.6605C64.151 23.5671 64.4592 24.4374 64.8944 25.2715C65.3296 26.1056 66.2181 26.8309 67.5599 27.4474C67.7775 27.5562 67.9951 27.665 68.2127 27.7738C68.4665 27.8826 68.7566 27.8826 69.083 27.7738C69.3731 27.665 69.5001 27.5381 69.4638 27.393C69.4638 27.248 69.4457 27.1029 69.4094 26.9579C69.2281 25.7248 69.0467 24.51 68.8654 23.3132C68.7204 22.1165 68.6478 20.9198 68.6478 19.723ZM63.895 15.2624C62.7708 15.8789 62.6055 16.5136 62.1341 17.1663C61.6989 17.8191 61.3544 18.5081 61.1005 19.2334C60.4115 20.9742 60.212 22.6786 60.5022 24.3468C60.8285 26.015 60.5608 27.6469 62.229 29.2425C63.063 30.0041 64.0059 30.4393 65.0576 30.5481C66.1093 30.6569 67.161 30.4211 68.2127 29.8409C68.7566 29.5508 69.0467 29.2788 69.083 29.0249C69.1555 28.7711 68.7929 28.5172 67.9951 28.2634C65.8554 27.5744 64.423 26.4864 63.6977 24.9995C62.8999 23.4039 62.5009 21.8264 62.5009 20.267C62.5009 18.6713 63.3873 17.0032 63.895 15.2624Z" fill="#000000"/>
<path fill-rule="evenodd" clip-rule="evenodd" d="M74.7403 20.3758C74.8129 22.2616 74.8129 24.0748 74.7403 25.8155C74.6678 27.5562 74.4321 29.2788 74.0332 30.9832C73.8156 31.8899 73.4711 32.7965 72.9996 33.7031C72.5282 34.5735 72.57 34.5368 72.1976 34.8859C70.6665 35.3755 70.566 36.5492 69.9335 36.8038C68.9847 36.8038 68.3522 39.3956 63.9245 39.7119C60.3823 39.9649 58.4266 38.0463 57.8914 37.0554C57.6013 36.4389 57.3837 35.8406 57.2387 35.2603C57.1299 34.6438 57.0573 34.0092 57.0211 33.3564C56.9123 30.9992 54.4366 28.0095 54.6542 25.6523C55.0812 22.2479 54.8412 19.5194 54.6677 18.5807C54.6315 16.6586 55.1029 14.7366 56.0821 12.8146C56.5172 11.9442 57.0249 11.092 57.6052 10.2579C58.2217 9.4238 59.1102 8.66224 60.2707 7.97321C62.7004 6.59514 65.6922 6.01491 69.2462 6.23249C69.899 6.26876 70.4611 6.41382 70.9325 6.66767C71.404 6.88526 71.821 7.13912 72.1837 7.42924C72.8727 8.04574 73.4167 8.69851 73.8156 9.38754C74.2145 10.0403 74.4321 10.7293 74.4683 11.4546C74.5409 13.014 74.6315 14.5553 74.7403 16.0784C74.8854 17.5653 74.8854 18.9977 74.7403 20.3758ZM73.5436 13.2497C73.5073 13.9025 73.4892 14.5553 73.4892 15.208C73.5617 17.4565 73.6705 19.7049 73.8156 21.9533C73.9606 24.2017 73.87 26.4501 73.5436 28.6986C73.3623 29.9316 73.054 31.1283 72.6188 32.2888C72.2199 33.4493 72.2596 33.3866 71.7624 34.3964C71.2582 34.5869 70.1232 35.1577 69.6172 35.9167C69.301 35.9167 67.4034 38.1306 65.5058 38.7631C63.9877 39.2691 61.5377 38.8146 60.5025 38.5242C59.9223 38.2703 59.5052 37.9077 59.2514 37.4362C58.7437 36.4933 58.381 35.5504 58.1634 34.6076C57.9821 33.6284 57.9155 32.754 57.5992 31.489C56.6201 29.1484 55.0691 27.9662 55.8509 24.2379C55.9838 23.411 55.9516 19.3966 55.9189 17.4927C55.9914 15.9333 56.3903 14.4284 57.1156 12.9778C57.8409 11.4909 58.9832 10.0766 60.5426 8.73477C60.9778 8.37212 61.4674 8.04574 62.0114 7.75562C62.5916 7.42923 63.2806 7.19351 64.0785 7.04846C66.7983 6.54075 68.9923 6.66768 70.6605 7.42924C72.365 8.15453 73.3079 9.44193 73.4892 11.2914C73.5617 11.9442 73.5798 12.597 73.5436 13.2497Z" fill="#000000"/>
<path d="M87.9694 10.605C87.2803 10.3874 86.6094 10.3511 85.9567 10.4962C85.3402 10.605 84.7237 10.7138 84.1072 10.8226C83.5632 10.8951 83.1643 10.8589 82.9104 10.7138C82.6566 10.5687 82.5659 10.188 82.6384 9.57145C82.7472 8.99122 82.6747 8.35658 82.4208 7.66755C82.1307 6.90599 82.0763 6.12629 82.2577 5.32847C82.4752 4.53064 82.439 3.75095 82.1489 2.98939C82.0763 2.7718 82.1851 2.62674 82.4752 2.55421C83.2731 2.26409 84.0528 1.97397 84.8143 1.68385C85.5759 1.35747 86.3737 1.13988 87.2078 1.03108C87.7155 0.958555 88.0963 1.01295 88.3502 1.19428C88.604 1.33934 88.7491 1.72012 88.7853 2.33662C88.8579 3.35203 88.9667 4.36745 89.1117 5.38287C89.2568 6.36202 89.3837 7.3593 89.4925 8.37471C89.565 8.77363 89.5832 9.17254 89.5469 9.57145C89.5469 9.9341 89.2386 10.188 88.6221 10.333C88.4408 10.3693 88.3502 10.4418 88.3502 10.5506C88.3864 10.6594 88.4408 10.8045 88.5133 10.9858C90.4354 14.8661 91.6865 18.8734 92.2668 23.0076C92.8833 27.1055 92.992 31.2941 92.5931 35.5733C92.5931 35.7547 92.575 35.8997 92.5387 36.0085C92.5025 36.5888 92.4481 37.169 92.3755 37.7492C92.303 38.3295 91.8497 38.7284 91.0156 38.946C90.4354 39.091 89.8733 39.2542 89.3293 39.4356C88.7853 39.6531 88.187 39.6169 87.5342 39.3268C87.0265 39.1092 86.4825 39.091 85.9023 39.2724C85.322 39.4899 84.7599 39.635 84.216 39.7075C83.3093 39.7801 82.7291 39.7075 82.4752 39.4899C82.2214 39.3086 82.1126 38.7647 82.1489 37.858C82.2214 34.8843 82.2395 31.9106 82.2033 28.9369C82.2033 25.9269 82.1851 22.935 82.1489 19.9613C82.1489 19.236 82.1126 18.4926 82.0401 17.731C82.0038 16.9695 81.9494 16.2261 81.8769 15.5008C81.6956 13.7238 82.4027 12.5452 83.9984 11.9649C84.6511 11.7111 85.3039 11.4572 85.9567 11.2034C86.6094 10.9133 87.2803 10.7138 87.9694 10.605ZM86.9902 4.07733C87.643 4.22239 87.9512 4.1136 87.915 3.75095C87.8787 3.35203 87.8787 2.98939 87.915 2.663C87.9512 2.40915 87.9512 2.15529 87.915 1.90144C87.8787 1.64759 87.6611 1.55692 87.2622 1.62945C86.5732 1.66572 85.9023 1.79264 85.2495 2.01023C84.633 2.22782 84.0709 2.57234 83.5632 3.04378C83.3093 3.26137 83.1462 3.56962 83.0736 3.96854C83.0374 4.33119 83.0918 4.65757 83.2368 4.94769C83.3093 5.12901 83.4725 5.14714 83.7264 5.00208C83.9802 4.85703 84.216 4.76636 84.4336 4.7301C84.8325 4.65757 85.2314 4.5669 85.6303 4.45811C86.0655 4.34932 86.5188 4.22239 86.9902 4.07733ZM88.4589 5.87244C88.4227 5.58232 88.3864 5.31034 88.3502 5.05648C88.3139 4.80263 88.0419 4.69383 87.5342 4.7301C87.0627 4.76636 86.7908 4.91142 86.7182 5.16528C86.6457 5.41913 86.6276 5.70925 86.6638 6.03563C86.7001 6.50707 86.7364 6.99665 86.7726 7.50436C86.8089 7.9758 86.827 8.46538 86.827 8.97308C86.8633 9.29947 86.954 9.49893 87.099 9.57145C87.2803 9.64398 87.4979 9.68025 87.7518 9.68025C88.0419 9.68025 88.2595 9.62585 88.4046 9.51706C88.5859 9.40826 88.6584 9.17254 88.6221 8.80989C88.5859 8.30218 88.5496 7.81261 88.5133 7.34117C88.5133 6.83346 88.4952 6.34388 88.4589 5.87244ZM83.2912 7.88514C83.4 8.71923 83.4907 9.29947 83.5632 9.62585C83.6357 9.95224 83.7808 10.1336 83.9984 10.1698C84.216 10.1698 84.5786 10.1336 85.0863 10.061C85.7028 9.95223 86.0111 9.57146 86.0111 8.91869C86.0473 8.41098 86.0292 7.90327 85.9567 7.39556C85.8841 6.85159 85.8116 6.32575 85.7391 5.81804C85.7391 5.67298 85.721 5.52792 85.6847 5.38287C85.6484 5.23781 85.5034 5.16528 85.2495 5.16528C83.6901 5.09275 83.0192 5.83617 83.2368 7.39556C83.2368 7.50436 83.2368 7.61315 83.2368 7.72195C83.2731 7.79448 83.2912 7.84887 83.2912 7.88514ZM83.0736 14.1408C83.6901 13.9958 84.2704 13.887 84.8143 13.8144C85.3583 13.7056 85.9023 13.5787 86.4462 13.4337C86.8452 13.3611 87.099 13.1617 87.2078 12.8353C87.3529 12.5089 87.3891 12.2188 87.3166 11.9649C87.2441 11.6748 87.0627 11.5842 86.7726 11.6929C86.5188 11.7655 86.2831 11.838 86.0655 11.9105C85.7028 12.0556 85.3402 12.2007 84.9775 12.3457C84.6511 12.4545 84.3066 12.5996 83.944 12.7809C83.6901 12.8897 83.4725 13.0347 83.2912 13.2161C83.1099 13.3974 83.0374 13.7056 83.0736 14.1408ZM88.2958 12.3457C88.0419 12.7446 87.9331 13.1073 87.9694 13.4337C88.0056 13.76 88.0419 14.0864 88.0782 14.4128C88.2232 15.1018 88.3683 15.7909 88.5133 16.4799C88.6947 17.1327 88.8035 17.8036 88.8397 18.4926C88.9123 20.1245 88.9485 21.7564 88.9485 23.3884C88.9848 24.984 89.0211 26.5978 89.0573 28.2297C89.0936 29.8254 89.0573 31.421 88.9485 33.0167C88.8397 34.5761 88.8397 36.1536 88.9485 37.7492C88.9485 37.8943 88.9304 38.0575 88.8941 38.2388C88.8941 38.4201 89.0392 38.5471 89.3293 38.6196C89.8733 38.6559 90.3991 38.4745 90.9068 38.0756C91.4508 37.6767 91.7409 37.2053 91.7772 36.6613C92.031 33.7238 92.1217 30.7864 92.0492 27.8489C91.9766 24.8752 91.5052 21.9378 90.6348 19.0366C90.3085 17.9124 89.9821 16.8063 89.6557 15.7183C89.3656 14.5941 88.9123 13.4699 88.2958 12.3457ZM88.0238 17.8942C87.8787 17.3503 87.7518 16.8426 87.643 16.3711C87.5705 15.8634 87.4798 15.3738 87.371 14.9024C87.3347 14.7211 87.2803 14.5397 87.2078 14.3584C87.1715 14.1771 87.0084 14.1227 86.7182 14.1952C86.1017 14.3403 85.449 14.4128 84.7599 14.4128C84.0709 14.4128 83.4725 14.6123 82.9648 15.0112C82.6022 15.265 82.5296 15.6458 82.7472 16.1535C82.9648 16.625 83.0374 17.0601 82.9648 17.4591C82.9286 17.4953 82.9104 17.5497 82.9104 17.6222C82.9104 21.0311 82.9286 24.44 82.9648 27.8489C83.0374 31.2216 83.0192 34.5942 82.9104 37.9668C82.9104 38.3657 82.9648 38.6377 83.0736 38.7828C83.2187 38.9641 83.5269 39.0366 83.9984 39.0004C84.4698 38.9641 84.9231 38.8734 85.3583 38.7284C85.8298 38.6196 86.3012 38.5833 86.7726 38.6196C87.3891 38.6559 87.7699 38.5289 87.915 38.2388C88.06 37.985 88.1144 37.6404 88.0782 37.2053C88.0056 36.0085 88.0238 34.8118 88.1326 33.615C88.2414 32.382 88.2958 31.1672 88.2958 29.9704C88.2958 27.9396 88.2776 25.9269 88.2414 23.9323C88.2414 21.9015 88.1688 19.8888 88.0238 17.8942Z" fill="#000000"/>
</svg>
