<svg width="28" height="28" viewBox="0 0 28 28" fill="none" xmlns="http://www.w3.org/2000/svg">
<mask id="path-1-inside-1_798_5898" fill="white">
<path d="M12.29 5.85996L3.82002 20C3.64539 20.3024 3.55299 20.6453 3.55201 20.9945C3.55103 21.3437 3.64151 21.6871 3.81445 21.9905C3.98738 22.2939 4.23675 22.5467 4.53773 22.7238C4.83871 22.9009 5.18082 22.9961 5.53002 23H22.47C22.8192 22.9961 23.1613 22.9009 23.4623 22.7238C23.7633 22.5467 24.0127 22.2939 24.1856 21.9905C24.3585 21.6871 24.449 21.3437 24.448 20.9945C24.4471 20.6453 24.3547 20.3024 24.18 20L15.71 5.85996C15.5318 5.56607 15.2807 5.32308 14.9812 5.15444C14.6817 4.98581 14.3438 4.89722 14 4.89722C13.6563 4.89722 13.3184 4.98581 13.0188 5.15444C12.7193 5.32308 12.4683 5.56607 12.29 5.85996Z"/>
<path d="M15 19C15 19.5523 14.5523 20 14 20C13.4477 20 13 19.5523 13 19C13 18.4477 13.4477 18 14 18C14.5523 18 15 18.4477 15 19Z"/>
</mask>
<path d="M14.5 11C14.5 10.7238 14.2762 10.5 14 10.5C13.7239 10.5 13.5 10.7238 13.5 11H14.5ZM13.5 15C13.5 15.2761 13.7239 15.5 14 15.5C14.2762 15.5 14.5 15.2761 14.5 15H13.5ZM13.5 11V15H14.5V11H13.5ZM12.29 5.85996L11.435 5.34132L11.4322 5.34609L12.29 5.85996ZM3.82002 20L2.96215 19.4861C2.95941 19.4907 2.9567 19.4953 2.95403 19.4999L3.82002 20ZM5.53002 23L5.51903 24H5.53002V23ZM22.47 23V24L22.481 23.9999L22.47 23ZM24.18 20L25.046 19.4999C25.0433 19.4953 25.0406 19.4907 25.0379 19.4861L24.18 20ZM15.71 5.85996L16.5679 5.34608L16.565 5.34133L15.71 5.85996ZM14 4.89722V3.89722V4.89722ZM11.4322 5.34609L2.96215 19.4861L4.67789 20.5138L13.1479 6.37383L11.4322 5.34609ZM2.95403 19.4999C2.69208 19.9535 2.55348 20.4678 2.55201 20.9917L4.55201 20.9973C4.55249 20.8227 4.5987 20.6512 4.68601 20.5L2.95403 19.4999ZM2.55201 20.9917C2.55055 21.5155 2.68627 22.0306 2.94567 22.4857L4.68322 21.4953C4.59676 21.3436 4.55152 21.1719 4.55201 20.9973L2.55201 20.9917ZM2.94567 22.4857C3.20507 22.9408 3.57912 23.32 4.03059 23.5857L5.04487 21.8619C4.89437 21.7734 4.76969 21.647 4.68322 21.4953L2.94567 22.4857ZM4.03059 23.5857C4.48206 23.8513 4.99523 23.9941 5.51903 23.9999L5.54101 22C5.36641 21.9981 5.19536 21.9505 5.04487 21.8619L4.03059 23.5857ZM5.53002 24H22.47V22H5.53002V24ZM22.481 23.9999C23.0048 23.9941 23.518 23.8513 23.9694 23.5857L22.9552 21.8619C22.8047 21.9505 22.6336 21.9981 22.459 22L22.481 23.9999ZM23.9694 23.5857C24.4209 23.32 24.795 22.9408 25.0544 22.4857L23.3168 21.4953C23.2303 21.647 23.1057 21.7734 22.9552 21.8619L23.9694 23.5857ZM25.0544 22.4857C25.3138 22.0306 25.4495 21.5155 25.448 20.9917L23.448 20.9973C23.4485 21.1719 23.4033 21.3436 23.3168 21.4953L25.0544 22.4857ZM25.448 20.9917C25.4466 20.4678 25.308 19.9535 25.046 19.4999L23.314 20.5C23.4013 20.6512 23.4475 20.8227 23.448 20.9973L25.448 20.9917ZM25.0379 19.4861L16.5679 5.34609L14.8522 6.37383L23.3222 20.5138L25.0379 19.4861ZM16.565 5.34133C16.2976 4.90049 15.9211 4.53601 15.4718 4.28306L14.4906 6.02583C14.6404 6.11015 14.7659 6.23164 14.855 6.37859L16.565 5.34133ZM15.4718 4.28306C15.0225 4.0301 14.5156 3.89722 14 3.89722V5.89722C14.1719 5.89722 14.3409 5.94151 14.4906 6.02583L15.4718 4.28306ZM14 3.89722C13.4844 3.89722 12.9775 4.0301 12.5282 4.28306L13.5094 6.02583C13.6592 5.94151 13.8282 5.89722 14 5.89722V3.89722ZM12.5282 4.28306C12.0789 4.53601 11.7024 4.90049 11.435 5.34133L13.145 6.37859C13.2342 6.23164 13.3597 6.11015 13.5094 6.02583L12.5282 4.28306ZM14 19V21C15.1046 21 16 20.1046 16 19H14ZM14 19H12C12 20.1046 12.8954 21 14 21V19ZM14 19V17C12.8954 17 12 17.8954 12 19H14ZM14 19H16C16 17.8954 15.1046 17 14 17V19Z" fill="currentColor" mask="url(#path-1-inside-1_798_5898)"/>
</svg>
